<?xml version="1.0" encoding="utf-8"?>
<!-- Generator: Adobe Illustrator 18.1.1, SVG Export Plug-In . SVG Version: 6.00 Build 0)  -->
<svg version="1.1" id="Layer_1" xmlns="http://www.w3.org/2000/svg" xmlns:xlink="http://www.w3.org/1999/xlink" x="0px" y="0px"
	 viewBox="216.4 381.2 180.4 31.5" enable-background="new 216.4 381.2 180.4 31.5" xml:space="preserve">
<g>
	<g>
		<g>
			<path id="SVGID_1_" fill="#FFFFFF" d="M322.1,387.7c0.9,0,1.4-0.2,1.8-0.5s0.5-0.9,0.5-1.5v-2.5c0-0.7-0.2-1.2-0.5-1.5
				c-0.3-0.3-0.9-0.5-1.8-0.5H320c-0.8,0-1.4,0.2-1.7,0.5c-0.4,0.3-0.5,0.9-0.5,1.5v2.5c0,0.7,0.2,1.2,0.5,1.5
				c0.3,0.3,0.9,0.5,1.7,0.5H322.1z M335.8,399.5c0-1.1,0.1-1.9,0.2-2.6c0.2-0.6,0.5-1.2,0.9-1.5c0.4-0.3,1-0.5,1.8-0.7
				c0.8-0.1,1.7-0.2,2.9-0.2h12.3v7.7c0,1-0.1,1.8-0.2,2.4c-0.2,0.6-0.4,1.2-0.8,1.5c-0.4,0.3-0.9,0.6-1.5,0.8
				c-0.7,0.2-1.5,0.2-2.5,0.2h-7.2c-1.2,0-2.1-0.1-2.9-0.2c-0.8-0.2-1.3-0.4-1.8-0.7c-0.4-0.3-0.7-0.9-0.9-1.5
				c-0.2-0.6-0.2-1.5-0.2-2.5V399.5L335.8,399.5z M390.3,404c0,0.9-0.1,1.6-0.2,2.2c-0.2,0.5-0.5,1-0.8,1.3
				c-0.4,0.3-0.8,0.5-1.4,0.6c-0.5,0.2-1.2,0.2-1.9,0.2h-12.2c-0.9,0-1.5-0.2-1.9-0.5c-0.5-0.3-0.7-0.9-0.7-1.7v-1.6
				c0-0.6,0.1-1.1,0.3-1.5s0.5-0.6,0.9-0.8c0.4-0.2,0.8-0.2,1.3-0.2h16.8L390.3,404L390.3,404z M258.5,412.6l-17.9-31.5h6.6
				l17.9,31.5H258.5z M386.1,412.6c2.1,0,3.8-0.2,5.2-0.5c1.4-0.3,2.5-0.9,3.3-1.5c0.9-0.7,1.4-1.6,1.8-2.9c0.3-1.2,0.5-2.6,0.5-4.3
				v-5.7c0-2-0.3-3.6-1.1-4.9c-0.7-1.3-1.9-2.2-3.4-2.9c-1.5-0.6-3.6-0.9-6-0.9h-15.6c0,2.1,1.2,4.5,4.9,4.6h10.7
				c0.9,0,1.7,0.1,2.3,0.3c0.6,0.2,1,0.6,1.3,1.2c0.2,0.5,0.4,1.3,0.4,2.3v0.5h-17.5c-1.6,0-2.9,0.2-4,0.4c-1.1,0.3-1.9,0.7-2.5,1.2
				c-0.6,0.5-1,1.2-1.3,1.9c-0.2,0.8-0.4,1.6-0.4,2.6v2.2c0,0.9,0.2,1.9,0.4,2.6c0.2,0.8,0.7,1.4,1.4,1.9c0.6,0.5,1.5,0.9,2.6,1.2
				c1.1,0.3,2.5,0.5,4.2,0.5L386.1,412.6L386.1,412.6z M348.9,412.6c2.2,0,4-0.2,5.5-0.5s2.6-0.9,3.5-1.8c0.9-0.8,1.5-1.9,1.9-3.2
				c0.4-1.3,0.5-2.9,0.5-4.7v-21c-3.7,0.3-6.5,2.9-6.5,5.3v2.4h-13.1c-2.2,0-4,0.2-5.5,0.5c-1.5,0.4-2.6,0.9-3.5,1.8
				c-0.9,0.8-1.5,1.9-1.9,3.2c-0.4,1.3-0.5,2.9-0.5,4.8v3.2c0,1.9,0.2,3.5,0.5,4.7c0.4,1.3,1,2.3,1.9,3.2c0.9,0.8,2,1.4,3.5,1.8
				c1.5,0.4,3.3,0.5,5.5,0.5L348.9,412.6L348.9,412.6z M324.4,412.6v-23h-6.6v23H324.4z M223.1,412.6l13.1-23h-6.6l-13.1,23H223.1z
				 M231.4,412.6l13.1-23h-6.6l-13.1,23H231.4z M312.8,412.6v-15.1c0-1.9-0.2-3.6-0.8-4.8c-0.5-1.2-1.5-2.2-2.7-2.8
				c-1.2-0.6-2.9-0.9-4.9-0.9h-5.9c-1.5,0-2.8,0.2-3.9,0.5c-1,0.3-1.9,0.8-2.4,1.4c-0.6,0.6-1,1.4-1.3,2.3c-0.3-0.9-0.7-1.7-1.3-2.3
				c-0.6-0.6-1.4-1.1-2.4-1.4s-2.3-0.5-3.9-0.5h-5.7c-2.1,0-3.7,0.3-4.9,0.9c-1.2,0.6-2.2,1.5-2.7,2.8c-0.5,1.2-0.9,2.9-0.8,4.8
				v15.1h6.3v-14.2c0-0.9,0.2-1.7,0.4-2.3c0.2-0.5,0.6-0.9,1.2-1.2s1.2-0.4,2.1-0.3h4.1c1,0,1.8,0.1,2.5,0.2
				c0.6,0.2,1.2,0.3,1.5,0.6c0.4,0.3,0.6,0.7,0.8,1.2c0.2,0.5,0.2,1.1,0.2,1.8v14.2h5.7v-14.2c0-0.7,0.1-1.3,0.2-1.8
				c0.2-0.5,0.4-0.9,0.8-1.2c0.4-0.3,0.9-0.5,1.5-0.6c0.6-0.2,1.4-0.2,2.4-0.2h4.2c0.9,0,1.5,0.1,2,0.3c0.5,0.2,0.9,0.6,1.2,1.2
				c0.2,0.5,0.4,1.3,0.4,2.3v14.2H312.8z"/>
		</g>
	</g>
	<g>
		<g>
			<path id="SVGID_3_" fill="#B4B4B4" d="M244.7,400.6c2.3,0,4.2,1.9,4.2,4.2s-1.9,4.2-4.2,4.2c-2.3,0-4.2-1.9-4.2-4.2
				C240.5,402.4,242.4,400.6,244.7,400.6"/>
		</g>
		<g>
			<defs>
				<path id="SVGID_2_" d="M244.7,400.6c2.3,0,4.2,1.9,4.2,4.2s-1.9,4.2-4.2,4.2c-2.3,0-4.2-1.9-4.2-4.2
					C240.5,402.4,242.4,400.6,244.7,400.6"/>
			</defs>
			<clipPath id="SVGID_4_">
				<use xlink:href="#SVGID_2_"  overflow="visible"/>
			</clipPath>
			<g clip-path="url(#SVGID_4_)">
				<g>
					<g>
						<defs>
							<rect id="SVGID_5_" x="240.5" y="400.6" width="8.3" height="8.3"/>
						</defs>
						<clipPath id="SVGID_6_">
							<use xlink:href="#SVGID_5_"  overflow="visible"/>
						</clipPath>
						<g clip-path="url(#SVGID_6_)">
							<g>
								<defs>
									<rect id="SVGID_7_" x="240.5" y="400.6" width="8.3" height="8.3"/>
								</defs>
								<clipPath id="SVGID_8_">
									<use xlink:href="#SVGID_7_"  overflow="visible"/>
								</clipPath>
								<g clip-path="url(#SVGID_8_)">
									
										<image overflow="visible" enable-background="new    " width="50" height="50" xlink:href="1C4DB7DCDDD4FBD0.jpeg"  transform="matrix(0.1669 0 0 0.1669 240.5577 400.5426)">
									</image>
								</g>
							</g>
						</g>
					</g>
				</g>
				<circle fill="#2F86C0" cx="244.7" cy="404.7" r="4.2"/>
			</g>
		</g>
	</g>
</g>
</svg>
