<?xml version="1.0" encoding="UTF-8" standalone="no"?>
<svg width="71px" height="71px" viewBox="0 0 71 71" version="1.1" xmlns="http://www.w3.org/2000/svg" xmlns:xlink="http://www.w3.org/1999/xlink" xmlns:sketch="http://www.bohemiancoding.com/sketch/ns">
    <!-- Generator: Sketch 3.3.3 (12072) - http://www.bohemiancoding.com/sketch -->
    <title>bluebutton</title>
    <desc>Created with Sketch.</desc>
    <defs></defs>
    <g id="Notifications" stroke="none" stroke-width="1" fill="none" fill-rule="evenodd" sketch:type="MSPage">
        <g id="Notifications-List" sketch:type="MSArtboardGroup" transform="translate(-147.000000, -835.000000)" fill="#FFFFFF">
            <g id="Group" sketch:type="MSLayerGroup">
                <g id="Viagra-Copy-2-+-Rectangle-19-+-Accept-+-Rectangle-19-+-Accept-Copy-Copy-Copy-+-Title-Copy-2" transform="translate(0.000000, 465.000000)" sketch:type="MSShapeGroup">
                    <g id="Viagra-Copy-2-+-Rectangle-19-+-Accept-+-Rectangle-19-+-Accept-Copy-Copy-Copy" transform="translate(0.000000, 44.000000)">
                        <g id="Viagra-Copy-2">
                            <g id="Button" transform="translate(24.000000, 317.000000)">
                                <g id="Comment-+-bluebutton" transform="translate(123.000000, 9.000000)">
                                    <g id="bluebutton">
                                        <path d="M35.5420118,4.31071429 C52.5988166,4.31071429 66.4207101,18.172619 66.4627219,35.3732143 C66.5047337,52.5738095 52.6828402,66.5202381 35.5840237,66.5625 L35.5,66.5625 C18.4431953,66.5625 4.62130178,52.7005952 4.57928994,35.5 C4.57928994,18.3416667 18.4011834,4.35297619 35.5,4.31071429 L35.5420118,4.31071429 L35.5420118,4.31071429 Z M35.5840237,0.0845238095 L35.5840237,4.31071429 L35.5840237,0.0845238095 L35.5,0.0845238095 C16.0905325,0.126785714 0.378106509,16.0172619 0.420118343,35.5422619 C0.462130178,44.9666667 4.11715976,53.8416667 10.7550296,60.4767857 C17.3928994,67.1119048 26.2153846,70.7886905 35.5840237,70.7886905 L35.6680473,70.7886905 C55.035503,70.7464286 70.747929,54.8559524 70.7059172,35.3309524 C70.6639053,25.9065476 67.0088757,17.0315476 60.3710059,10.3964286 C53.7331361,3.76130952 44.9106509,0.0845238095 35.5840237,0.0845238095 L35.5840237,0.0845238095 L35.5840237,0.0845238095 Z" id="Oval-1_1_"></path>
                                        <path d="M18.5272189,51.5595238 L18.4852071,36.1761905 L23.8207101,36.1761905 L23.8627219,46.1922619 L47.3473373,46.15 L47.3053254,36.1339286 L52.6408284,36.1339286 L52.6828402,51.5172619 L48.2295858,51.5172619 L22.4343195,51.5595238 L18.5272189,51.5595238 L18.5272189,51.5595238 Z" id="Rectangle-2_2_"></path>
                                        <path d="M25.2491124,31.1470238 L35.752071,41.5011905 L46.2130178,31.1047619 L40.8775148,31.1047619 L40.835503,13.2279762 L30.5426036,13.2702381 L30.5846154,31.1470238 L25.2491124,31.1470238 L25.2491124,31.1470238 Z" id="Rectangle-1_2_"></path>
                                    </g>
                                </g>
                            </g>
                        </g>
                    </g>
                </g>
            </g>
        </g>
    </g>
</svg>